<?xml version="1.0" encoding="utf-8"?>

<!-- Uploaded to: SVG Repo, www.svgrepo.com, Generator: SVG Repo Mixer Tools -->
<svg width="800px" height="800px" viewBox="0 -112.5 296 296" fill="none" xmlns="http://www.w3.org/2000/svg">
  <g clip-path="url(#clip0_3_228)">
    <path
      d="M-8.59302e-06 71C13.102 44.3623 83.0496 8.91537 132.922 2.62301C186.809 -4.29859 217.873 1.57428 281.27 31.1484C280.425 26.9535 279.368 23.5976 278.945 20.4514C278.311 16.8857 277.677 13.1103 277.889 9.54461C277.889 8.49589 279.791 6.60818 281.059 6.39843C282.327 6.18869 284.44 7.6569 284.862 8.70563C288.666 18.7734 292.047 28.8412 295.64 39.1187C296.696 42.4746 295.428 44.9916 291.836 46.0403C278.1 49.3962 264.364 52.9619 250.417 56.1081C247.247 56.7373 243.443 55.8983 239.217 55.8983C242.598 46.8793 250.206 47.928 255.7 45.6208C261.406 43.1039 267.534 41.6357 274.93 39.1187C257.39 27.373 239.639 20.0319 220.832 15.4175C151.941 -1.78164 88.544 12.481 30.0078 50.6547C22.4002 55.6886 15.4266 61.5615 8.03027 66.8051C5.70573 67.8538 3.59247 68.9026 -8.59302e-06 71Z"
      fill="currentColor" />
  </g>
  <defs>
    <clipPath id="clip0_3_228">
      <rect width="296" height="71" fill="white" />
    </clipPath>
  </defs>
</svg>