<svg width="832" height="832" viewBox="0 0 832 832" fill="none" xmlns="http://www.w3.org/2000/svg">
<g clip-path="url(#clip0_22_37)">
<g filter="url(#filter0_i_22_37)">
<path fill-rule="evenodd" clip-rule="evenodd" d="M594.52 0H237.48C154.903 0 124.959 8.59797 94.7697 24.7432C64.5808 40.8884 40.8884 64.5808 24.7432 94.7697C8.59797 124.959 0 154.903 0 237.48V594.52C0 677.097 8.59797 707.041 24.7432 737.23C40.8884 767.419 64.5808 791.112 94.7697 807.257C124.959 823.402 154.903 832 237.48 832H594.52C677.097 832 707.041 823.402 737.23 807.257C767.419 791.112 791.112 767.419 807.257 737.23C823.402 707.041 832 677.097 832 594.52V237.48C832 154.903 823.402 124.959 807.257 94.7697C791.112 64.5808 767.419 40.8884 737.23 24.7432C707.041 8.59797 677.097 0 594.52 0Z" fill="url(#paint0_linear_22_37)"/>
</g>
<g clip-path="url(#clip1_22_37)">
<g filter="url(#filter1_d_22_37)">
<path d="M626.091 105.27C718.706 211.98 711.156 359.959 603.442 549.207C495.727 738.456 366.876 781.237 216.888 677.551L626.091 105.27Z" fill="#2C8357"/>
<path d="M635.152 197.336C627.603 340.79 357.317 887.398 186.689 618.625C72.9374 439.443 171.59 273.848 482.648 121.84C589.347 76.5422 640.185 101.708 635.152 197.336Z" fill="#F9EAB0"/>
<path d="M635.152 197.336C627.603 340.79 357.317 887.398 186.689 618.625C72.9374 439.443 171.59 273.848 482.648 121.84C589.347 76.5422 640.185 101.708 635.152 197.336Z" stroke="#44BC7F" stroke-width="31.9419"/>
<path d="M427.398 466.368C400.917 514.276 346.195 534.812 305.267 512.194C264.34 489.577 252.606 432.317 279.087 384.41C305.557 336.502 360.279 315.966 401.207 338.584C442.134 361.202 453.868 418.461 427.398 466.368Z" fill="#7F6E5D"/>
</g>
</g>
</g>
<defs>
<filter id="filter0_i_22_37" x="0" y="-6.37692" width="832" height="838.377" filterUnits="userSpaceOnUse" color-interpolation-filters="sRGB">
<feFlood flood-opacity="0" result="BackgroundImageFix"/>
<feBlend mode="normal" in="SourceGraphic" in2="BackgroundImageFix" result="shape"/>
<feColorMatrix in="SourceAlpha" type="matrix" values="0 0 0 0 0 0 0 0 0 0 0 0 0 0 0 0 0 0 127 0" result="hardAlpha"/>
<feOffset dy="-6.37692"/>
<feGaussianBlur stdDeviation="9.56539"/>
<feComposite in2="hardAlpha" operator="arithmetic" k2="-1" k3="1"/>
<feColorMatrix type="matrix" values="0 0 0 0 0 0 0 0 0 0 0 0 0 0 0 0 0 0 0.25 0"/>
<feBlend mode="normal" in2="shape" result="effect1_innerShadow_22_37"/>
</filter>
<filter id="filter1_d_22_37" x="25.2107" y="24.139" width="764.924" height="848.208" filterUnits="userSpaceOnUse" color-interpolation-filters="sRGB">
<feFlood flood-opacity="0" result="BackgroundImageFix"/>
<feColorMatrix in="SourceAlpha" type="matrix" values="0 0 0 0 0 0 0 0 0 0 0 0 0 0 0 0 0 0 127 0" result="hardAlpha"/>
<feOffset dy="39.9273"/>
<feGaussianBlur stdDeviation="49.9092"/>
<feComposite in2="hardAlpha" operator="out"/>
<feColorMatrix type="matrix" values="0 0 0 0 0.0918229 0 0 0 0 0.5125 0 0 0 0 0.260094 0 0 0 0.53 0"/>
<feBlend mode="normal" in2="BackgroundImageFix" result="effect1_dropShadow_22_37"/>
<feBlend mode="normal" in="SourceGraphic" in2="effect1_dropShadow_22_37" result="shape"/>
</filter>
<linearGradient id="paint0_linear_22_37" x1="2636.8" y1="0" x2="2636.8" y2="5273.6" gradientUnits="userSpaceOnUse">
<stop stop-color="#FDFFE4"/>
<stop offset="1" stop-color="white"/>
</linearGradient>
<clipPath id="clip0_22_37">
<rect width="832" height="832" fill="white"/>
</clipPath>
<clipPath id="clip1_22_37">
<rect width="832" height="832" fill="white"/>
</clipPath>
</defs>
</svg>
