<svg width="832" height="832" viewBox="0 0 832 832" fill="none" xmlns="http://www.w3.org/2000/svg">
<g clip-path="url(#clip0_14_4)">
<g filter="url(#filter0_i_14_4)">
<path fill-rule="evenodd" clip-rule="evenodd" d="M594.52 0H237.48C154.903 0 124.959 8.59797 94.7697 24.7432C64.5808 40.8884 40.8884 64.5808 24.7432 94.7697C8.59797 124.959 0 154.903 0 237.48V594.52C0 677.097 8.59797 707.041 24.7432 737.23C40.8884 767.419 64.5808 791.112 94.7697 807.257C124.959 823.402 154.903 832 237.48 832H594.52C677.097 832 707.041 823.402 737.23 807.257C767.419 791.112 791.112 767.419 807.257 737.23C823.402 707.041 832 677.097 832 594.52V237.48C832 154.903 823.402 124.959 807.257 94.7697C791.112 64.5808 767.419 40.8884 737.23 24.7432C707.041 8.59797 677.097 0 594.52 0Z" fill="url(#paint0_linear_14_4)"/>
</g>
<path d="M569.876 337.503H415.777V205.766C415.777 183.657 434.042 165.671 456.495 165.671C478.947 165.671 497.212 183.657 497.212 205.766V245.86C497.212 277.442 523.306 303.137 555.38 303.137C587.454 303.137 613.548 277.442 613.548 245.86V62.5726C613.548 56.2378 608.336 51.1172 601.915 51.1172C595.493 51.1172 590.281 56.2378 590.281 62.5726V245.86C590.281 264.807 574.622 280.226 555.38 280.226C536.138 280.226 520.479 264.807 520.479 245.86V205.766C520.479 171.033 491.779 142.761 456.495 142.761C421.21 142.761 392.51 171.033 392.51 205.766V337.503H229.314C133.267 337.503 55.1355 414.426 55.1355 509.014C55.1355 590.909 115.735 679.379 205.942 680.524C206.745 680.536 207.571 680.536 208.42 680.536C232.525 680.536 274.487 676.481 317.52 664.876C368.231 651.198 431.11 651.187 481.635 664.865C527.611 677.317 576.67 680.685 593.271 680.524C664.573 679.322 741.518 613.396 741.518 509.014C741.518 414.426 664.515 337.503 569.876 337.503ZM592.898 657.602C578.031 657.843 530.926 654.44 487.812 642.767C433.495 628.047 365.88 628.059 311.377 642.756C269.159 654.143 228.546 657.843 206.233 657.602C144.505 656.823 78.4027 596.923 78.4027 509.014C78.4027 427.084 146.099 360.414 229.314 360.414H569.876C651.683 360.414 718.251 427.073 718.251 509.014C718.251 579.74 667.877 656.342 592.898 657.602Z" fill="#DC3741"/>
<path d="M446.385 394.78C446.385 388.445 441.173 383.325 434.752 383.325H380.876C374.455 383.325 369.243 388.445 369.243 394.78C369.243 401.115 374.455 406.236 380.876 406.236H434.752C441.185 406.236 446.385 401.115 446.385 394.78Z" fill="#DC3741"/>
<path d="M485.579 463.513C459.915 463.513 439.044 484.064 439.044 509.334C439.044 534.605 459.915 555.156 485.579 555.156C511.242 555.156 532.113 534.605 532.113 509.334C532.113 484.064 511.242 463.513 485.579 463.513ZM485.579 532.245C472.747 532.245 462.311 521.97 462.311 509.334C462.311 496.699 472.747 486.424 485.579 486.424C498.41 486.424 508.846 496.699 508.846 509.334C508.846 521.97 498.41 532.245 485.579 532.245Z" fill="#DC3741"/>
<path d="M648.449 463.513C622.785 463.513 601.915 484.064 601.915 509.334C601.915 534.605 622.785 555.156 648.449 555.156C674.113 555.156 694.983 534.605 694.983 509.334C694.983 484.064 674.113 463.513 648.449 463.513ZM648.449 532.245C635.617 532.245 625.182 521.97 625.182 509.334C625.182 496.699 635.617 486.424 648.449 486.424C661.281 486.424 671.716 496.699 671.716 509.334C671.716 521.97 661.281 532.245 648.449 532.245Z" fill="#DC3741"/>
<path d="M567.014 543.701C541.35 543.701 520.479 564.252 520.479 589.523C520.479 614.793 541.35 635.344 567.014 635.344C592.678 635.344 613.548 614.793 613.548 589.523C613.548 564.252 592.678 543.701 567.014 543.701ZM567.014 612.433C554.182 612.433 543.747 602.158 543.747 589.523C543.747 576.887 554.182 566.612 567.014 566.612C579.846 566.612 590.281 576.887 590.281 589.523C590.281 602.158 579.846 612.433 567.014 612.433Z" fill="#DC3741"/>
<path d="M567.014 474.968C592.678 474.968 613.548 454.417 613.548 429.147C613.548 403.876 592.678 383.325 567.014 383.325C541.35 383.325 520.479 403.876 520.479 429.147C520.479 454.417 541.35 474.968 567.014 474.968ZM567.014 406.236C579.846 406.236 590.281 416.511 590.281 429.147C590.281 441.782 579.846 452.057 567.014 452.057C554.182 452.057 543.747 441.782 543.747 429.147C543.747 416.511 554.182 406.236 567.014 406.236Z" fill="#DC3741"/>
<path d="M322.708 463.513H287.807V429.146C287.807 422.812 282.596 417.691 276.174 417.691H206.372C199.95 417.691 194.739 422.812 194.739 429.146V463.513H159.838C153.416 463.513 148.204 468.633 148.204 474.968V543.701C148.204 550.036 153.416 555.156 159.838 555.156H194.739V589.522C194.739 595.857 199.95 600.978 206.372 600.978H276.174C282.596 600.978 287.807 595.857 287.807 589.522V555.156H322.708C329.13 555.156 334.342 550.036 334.342 543.701V474.968C334.342 468.622 329.13 463.513 322.708 463.513ZM311.075 532.245H276.174C269.752 532.245 264.54 537.366 264.54 543.701V578.067H218.006V543.701C218.006 537.366 212.794 532.245 206.372 532.245H171.471V486.424H206.372C212.794 486.424 218.006 481.303 218.006 474.968V440.602H264.54V474.968C264.54 481.303 269.752 486.424 276.174 486.424H311.075V532.245Z" fill="#DC3741"/>
<path d="M592.557 337.989H438.458V206.252C438.458 184.143 456.723 166.158 479.176 166.158C501.629 166.158 519.893 184.143 519.893 206.252V246.346C519.893 277.928 545.988 303.623 578.061 303.623C610.135 303.623 636.229 277.928 636.229 246.346V63.0588C636.229 56.724 631.018 51.6034 624.596 51.6034C618.174 51.6034 612.962 56.724 612.962 63.0588V246.346C612.962 265.293 597.303 280.712 578.061 280.712C558.819 280.712 543.161 265.293 543.161 246.346V206.252C543.161 171.519 514.461 143.247 479.176 143.247C443.891 143.247 415.191 171.519 415.191 206.252V337.989H251.995C155.948 337.989 77.8168 414.912 77.8168 509.5C77.8168 591.395 138.416 679.865 228.623 681.011C229.426 681.022 230.252 681.022 231.101 681.022C255.206 681.022 297.168 676.967 340.201 665.362C390.912 651.685 453.791 651.673 504.316 665.351C550.292 677.803 599.351 681.171 615.952 681.011C687.254 679.808 764.199 613.882 764.199 509.5C764.199 414.912 687.196 337.989 592.557 337.989ZM615.58 658.088C600.712 658.329 553.608 654.927 510.494 643.253C456.176 628.533 388.562 628.545 334.058 643.242C291.84 654.629 251.227 658.329 228.914 658.088C167.186 657.309 101.084 597.409 101.084 509.5C101.084 427.571 168.78 360.9 251.995 360.9H592.557C674.364 360.9 740.932 427.559 740.932 509.5C740.932 580.226 690.558 656.828 615.58 658.088Z" fill="white"/>
<path d="M469.066 395.266C469.066 388.931 463.854 383.811 457.433 383.811H403.558C397.136 383.811 391.924 388.931 391.924 395.266C391.924 401.601 397.136 406.722 403.558 406.722H457.433C463.866 406.722 469.066 401.601 469.066 395.266Z" fill="white"/>
<path d="M508.26 463.999C482.596 463.999 461.725 484.55 461.725 509.82C461.725 535.091 482.596 555.642 508.26 555.642C533.924 555.642 554.794 535.091 554.794 509.82C554.794 484.55 533.924 463.999 508.26 463.999ZM508.26 532.731C495.428 532.731 484.993 522.456 484.993 509.82C484.993 497.185 495.428 486.91 508.26 486.91C521.092 486.91 531.527 497.185 531.527 509.82C531.527 522.456 521.092 532.731 508.26 532.731Z" fill="white"/>
<path d="M671.13 463.999C645.467 463.999 624.596 484.55 624.596 509.82C624.596 535.091 645.467 555.642 671.13 555.642C696.794 555.642 717.665 535.091 717.665 509.82C717.665 484.55 696.794 463.999 671.13 463.999ZM671.13 532.731C658.298 532.731 647.863 522.456 647.863 509.82C647.863 497.185 658.298 486.91 671.13 486.91C683.962 486.91 694.398 497.185 694.398 509.82C694.398 522.456 683.962 532.731 671.13 532.731Z" fill="white"/>
<path d="M589.695 544.187C564.031 544.187 543.161 564.738 543.161 590.009C543.161 615.279 564.031 635.83 589.695 635.83C615.359 635.83 636.229 615.279 636.229 590.009C636.229 564.738 615.359 544.187 589.695 544.187ZM589.695 612.92C576.863 612.92 566.428 602.644 566.428 590.009C566.428 577.373 576.863 567.098 589.695 567.098C602.527 567.098 612.962 577.373 612.962 590.009C612.962 602.644 602.527 612.92 589.695 612.92Z" fill="white"/>
<path d="M589.695 475.454C615.359 475.454 636.229 454.903 636.229 429.633C636.229 404.362 615.359 383.811 589.695 383.811C564.031 383.811 543.161 404.362 543.161 429.633C543.161 454.903 564.031 475.454 589.695 475.454ZM589.695 406.722C602.527 406.722 612.962 416.997 612.962 429.633C612.962 442.268 602.527 452.543 589.695 452.543C576.863 452.543 566.428 442.268 566.428 429.633C566.428 416.997 576.863 406.722 589.695 406.722Z" fill="white"/>
<path d="M345.389 463.999H310.489V429.633C310.489 423.298 305.277 418.177 298.855 418.177H229.053C222.632 418.177 217.42 423.298 217.42 429.633V463.999H182.519C176.097 463.999 170.885 469.119 170.885 475.454V544.187C170.885 550.522 176.097 555.642 182.519 555.642H217.42V590.009C217.42 596.343 222.632 601.464 229.053 601.464H298.855C305.277 601.464 310.489 596.343 310.489 590.009V555.642H345.389C351.811 555.642 357.023 550.522 357.023 544.187V475.454C357.023 469.108 351.811 463.999 345.389 463.999ZM333.756 532.731H298.855C292.433 532.731 287.221 537.852 287.221 544.187V578.553H240.687V544.187C240.687 537.852 235.475 532.731 229.053 532.731H194.153V486.91H229.053C235.475 486.91 240.687 481.789 240.687 475.454V441.088H287.221V475.454C287.221 481.789 292.433 486.91 298.855 486.91H333.756V532.731Z" fill="white"/>
</g>
<defs>
<filter id="filter0_i_14_4" x="0" y="-6.37692" width="832" height="838.377" filterUnits="userSpaceOnUse" color-interpolation-filters="sRGB">
<feFlood flood-opacity="0" result="BackgroundImageFix"/>
<feBlend mode="normal" in="SourceGraphic" in2="BackgroundImageFix" result="shape"/>
<feColorMatrix in="SourceAlpha" type="matrix" values="0 0 0 0 0 0 0 0 0 0 0 0 0 0 0 0 0 0 127 0" result="hardAlpha"/>
<feOffset dy="-6.37692"/>
<feGaussianBlur stdDeviation="9.56539"/>
<feComposite in2="hardAlpha" operator="arithmetic" k2="-1" k3="1"/>
<feColorMatrix type="matrix" values="0 0 0 0 0 0 0 0 0 0 0 0 0 0 0 0 0 0 0.25 0"/>
<feBlend mode="normal" in2="shape" result="effect1_innerShadow_14_4"/>
</filter>
<linearGradient id="paint0_linear_14_4" x1="2636.8" y1="0" x2="2636.8" y2="5273.6" gradientUnits="userSpaceOnUse">
<stop stop-color="#FF6D6D"/>
<stop offset="1" stop-color="#FF0099"/>
</linearGradient>
<clipPath id="clip0_14_4">
<rect width="832" height="832" fill="white"/>
</clipPath>
</defs>
</svg>
