<svg width="832" height="832" viewBox="0 0 832 832" fill="none" xmlns="http://www.w3.org/2000/svg">
<mask id="mask0_24_211" style="mask-type:luminance" maskUnits="userSpaceOnUse" x="0" y="0" width="832" height="832">
<path fill-rule="evenodd" clip-rule="evenodd" d="M832 259.119C832 249.242 832.004 239.364 831.943 229.486C831.894 221.165 831.798 212.846 831.572 204.529C831.083 186.402 830.014 168.119 826.79 150.194C823.52 132.01 818.181 115.086 809.767 98.5644C801.496 82.3253 790.691 67.4655 777.799 54.5826C764.91 41.6998 750.046 30.902 733.801 22.6356C717.263 14.2197 700.321 8.88238 682.117 5.61396C664.19 2.39502 645.902 1.32776 627.775 0.838055C619.452 0.612891 611.129 0.517979 602.804 0.466484C592.921 0.405901 583.038 0.41095 573.155 0.41095L458.404 0H372.58L259.86 0.41095C249.958 0.41095 240.055 0.405901 230.153 0.466484C221.811 0.517979 213.473 0.612891 205.134 0.838055C186.964 1.32776 168.635 2.39603 150.666 5.61901C132.437 8.88641 115.47 14.2217 98.9093 22.6315C82.6299 30.899 67.7338 41.6978 54.8177 54.5826C41.9036 67.4645 31.0786 82.3213 22.792 98.5573C14.3549 115.087 9.00553 132.021 5.72804 150.215C2.50103 168.133 1.43176 186.41 0.940032 204.529C0.715878 212.847 0.618947 221.166 0.568462 229.486C0.50788 239.365 0 251.636 0 261.514L0.0030291 372.672L0 459.416L0.512928 572.936C0.512928 582.827 0.508889 592.718 0.568462 602.609C0.618947 610.941 0.715878 619.271 0.941042 627.6C1.43176 645.751 2.50305 664.06 5.73308 682.009C9.00956 700.217 14.358 717.165 22.7879 733.708C31.0756 749.971 41.9026 764.85 54.8177 777.751C67.7328 790.652 82.6249 801.464 98.9012 809.742C115.472 818.169 132.448 823.513 150.687 826.786C168.648 830.01 186.971 831.079 205.134 831.569C213.473 831.794 221.812 831.89 230.154 831.94C240.056 832.001 249.958 831.997 259.86 831.997L373.599 832H459.636L573.155 831.996C583.038 831.996 592.921 832.001 602.804 831.94C611.129 831.89 619.452 831.794 627.775 831.569C645.909 831.078 664.203 830.008 682.138 826.782C700.331 823.509 717.264 818.167 733.794 809.745C750.042 801.468 764.909 790.654 777.799 777.751C790.689 764.852 801.493 749.975 809.764 733.715C818.183 717.164 823.522 700.208 826.794 681.988C830.015 664.046 831.083 645.744 831.573 627.6C831.798 619.27 831.894 610.94 831.943 602.609C832.005 592.718 832 582.827 832 572.936C832 572.936 831.994 461.42 831.994 459.416V372.581C831.994 371.101 832 259.119 832 259.119Z" fill="white"/>
</mask>
<g mask="url(#mask0_24_211)">
<g clip-path="url(#clip0_24_211)">
<mask id="path-2-inside-1_24_211" fill="white">
<path fill-rule="evenodd" clip-rule="evenodd" d="M594.52 0H237.48C154.903 0 124.959 8.59797 94.7697 24.7432C64.5808 40.8884 40.8884 64.5808 24.7432 94.7697C8.59797 124.959 0 154.903 0 237.48V594.52C0 677.097 8.59797 707.041 24.7432 737.23C40.8884 767.419 64.5808 791.112 94.7697 807.257C124.959 823.402 154.903 832 237.48 832H594.52C677.097 832 707.041 823.402 737.23 807.257C767.419 791.112 791.112 767.419 807.257 737.23C823.402 707.041 832 677.097 832 594.52V237.48C832 154.903 823.402 124.959 807.257 94.7697C791.112 64.5808 767.419 40.8884 737.23 24.7432C707.041 8.59797 677.097 0 594.52 0Z"/>
</mask>
<g filter="url(#filter0_i_24_211)">
<path fill-rule="evenodd" clip-rule="evenodd" d="M594.52 0H237.48C154.903 0 124.959 8.59797 94.7697 24.7432C64.5808 40.8884 40.8884 64.5808 24.7432 94.7697C8.59797 124.959 0 154.903 0 237.48V594.52C0 677.097 8.59797 707.041 24.7432 737.23C40.8884 767.419 64.5808 791.112 94.7697 807.257C124.959 823.402 154.903 832 237.48 832H594.52C677.097 832 707.041 823.402 737.23 807.257C767.419 791.112 791.112 767.419 807.257 737.23C823.402 707.041 832 677.097 832 594.52V237.48C832 154.903 823.402 124.959 807.257 94.7697C791.112 64.5808 767.419 40.8884 737.23 24.7432C707.041 8.59797 677.097 0 594.52 0Z" fill="url(#paint0_linear_24_211)"/>
</g>
<path d="M94.7697 24.7432L118.35 68.8338V68.8338L94.7697 24.7432ZM24.7432 94.7697L68.8338 118.35H68.8338L24.7432 94.7697ZM94.7697 807.257L118.35 763.166H118.35L94.7697 807.257ZM807.257 94.7697L763.166 118.35V118.35L807.257 94.7697ZM237.48 50H594.52V-50H237.48V50ZM237.48 -50C150.852 -50 111.589 -40.9532 71.1897 -19.3475L118.35 68.8338C138.328 58.1491 158.954 50 237.48 50V-50ZM71.1897 -19.3475C32.2874 1.45769 1.45769 32.2874 -19.3475 71.1897L68.8338 118.35C80.319 96.8741 96.8741 80.319 118.35 68.8338L71.1897 -19.3475ZM-19.3475 71.1897C-40.9532 111.589 -50 150.852 -50 237.48H50C50 158.954 58.1491 138.328 68.8338 118.35L-19.3475 71.1897ZM50 594.52V237.48H-50V594.52H50ZM-50 594.52C-50 681.148 -40.9532 720.411 -19.3475 760.81L68.8338 713.65C58.1491 693.672 50 673.046 50 594.52H-50ZM-19.3475 760.81C1.4577 799.713 32.2874 830.542 71.1897 851.347L118.35 763.166C96.8741 751.681 80.319 735.126 68.8338 713.65L-19.3475 760.81ZM71.1897 851.347C111.589 872.953 150.852 882 237.48 882V782C158.954 782 138.328 773.851 118.35 763.166L71.1897 851.347ZM594.52 782H237.48V882H594.52V782ZM594.52 882C681.148 882 720.411 872.953 760.81 851.347L713.65 763.166C693.672 773.851 673.046 782 594.52 782V882ZM760.81 851.347C799.713 830.542 830.542 799.713 851.347 760.81L763.166 713.65C751.681 735.126 735.126 751.681 713.65 763.166L760.81 851.347ZM851.347 760.81C872.953 720.411 882 681.148 882 594.52H782C782 673.046 773.851 693.672 763.166 713.65L851.347 760.81ZM782 237.48V594.52H882V237.48H782ZM882 237.48C882 150.852 872.953 111.589 851.347 71.1897L763.166 118.35C773.851 138.328 782 158.954 782 237.48H882ZM851.347 71.1897C830.542 32.2874 799.713 1.4577 760.81 -19.3475L713.65 68.8338C735.126 80.319 751.681 96.8741 763.166 118.35L851.347 71.1897ZM760.81 -19.3475C720.411 -40.9532 681.148 -50 594.52 -50V50C673.046 50 693.672 58.1491 713.65 68.8338L760.81 -19.3475Z" fill="#F2075D" mask="url(#path-2-inside-1_24_211)"/>
<path d="M186.534 489V427.466H309.602V489H186.534ZM371.136 489V427.466H432.745V489H371.136ZM309.602 427.466V365.932H371.136V427.466H309.602ZM248.068 365.932V304.398H309.602V365.932H248.068ZM125 427.466V181.255H186.534V427.466H125ZM371.136 365.932V181.255H432.745V365.932H371.136ZM186.534 181.255V119.721H371.136V181.255H186.534Z" fill="#F2075D"/>
<path d="M125 671.759V646.499H200.781V595.978H125V520.167H226.041V545.427H150.26V570.718H226.041V671.759H125ZM251.332 671.759V520.167H276.592V545.427H301.853V570.718H276.592V671.759H251.332ZM327.113 671.759V595.978H301.853V570.718H327.113V520.167H352.373V671.759H327.113ZM377.664 671.759V545.427H402.924V595.978H453.445V545.427H478.705V671.759H453.445V621.238H402.924V671.759H377.664ZM402.924 545.427V520.167H453.445V545.427H402.924ZM579.777 671.759V621.238H605.037V671.759H579.777ZM554.517 621.238V595.978H579.777V621.238H554.517ZM554.517 570.718V545.427H579.777V570.718H554.517ZM503.996 671.759V520.167H529.256V570.718H554.517V595.978H529.256V671.759H503.996ZM579.777 545.427V520.167H605.037V545.427H579.777ZM630.328 671.759V520.167H731.369V545.427H655.588V570.718H731.369V595.978H655.588V646.499H731.369V671.759H630.328Z" fill="#EF38ED"/>
</g>
</g>
<defs>
<filter id="filter0_i_24_211" x="0" y="-6.37692" width="832" height="838.377" filterUnits="userSpaceOnUse" color-interpolation-filters="sRGB">
<feFlood flood-opacity="0" result="BackgroundImageFix"/>
<feBlend mode="normal" in="SourceGraphic" in2="BackgroundImageFix" result="shape"/>
<feColorMatrix in="SourceAlpha" type="matrix" values="0 0 0 0 0 0 0 0 0 0 0 0 0 0 0 0 0 0 127 0" result="hardAlpha"/>
<feOffset dy="-6.37692"/>
<feGaussianBlur stdDeviation="9.56539"/>
<feComposite in2="hardAlpha" operator="arithmetic" k2="-1" k3="1"/>
<feColorMatrix type="matrix" values="0 0 0 0 0 0 0 0 0 0 0 0 0 0 0 0 0 0 0.25 0"/>
<feBlend mode="normal" in2="shape" result="effect1_innerShadow_24_211"/>
</filter>
<linearGradient id="paint0_linear_24_211" x1="2636.8" y1="0" x2="2636.8" y2="5273.6" gradientUnits="userSpaceOnUse">
<stop/>
<stop offset="1"/>
</linearGradient>
<clipPath id="clip0_24_211">
<rect width="832" height="832" fill="white"/>
</clipPath>
</defs>
</svg>
